<svg width="64" height="64" version="1.1" viewBox="0 0 16.933 16.933"
  xmlns="http://www.w3.org/2000/svg">
  <g transform="translate(-6.6659 -143.02)">
  <g transform="matrix(.037713 0 0 .037713 5.3271 141.68)">
    <path
      d="m453.8 96.8c0-16.5-13.2-30.1-29.6-30.6l-53.3-8.9c-3.8-12.6-15.5-21.8-29.3-21.8s-25.5 9.2-29.3 21.8l-53.3 8.9c-16.4 0.5-29.6 14-29.6 30.6 0 13.3 8.5 24.6 20.4 28.9v23.9c-11.9 4.2-20.4 15.6-20.4 28.9s8.5 24.6 20.4 28.9v23.9c-11.9 4.2-20.4 15.6-20.4 28.9s8.5 24.6 20.4 28.9v23.9c-11.9 4.2-20.4 15.6-20.4 28.9s8.5 24.6 20.4 28.9v23.9c-17.8 6.3-25.6 27-16.7 43.4l-26.4 4.4c-4.6-11.1-15.5-18.9-28.3-18.9-12.6 0-23.5 7.7-28.2 18.6l-26-5.2c8-16.3 0-36.2-17.3-42.3v-23.9c11.9-4.2 20.4-15.6 20.4-28.9s-8.5-24.6-20.4-28.9v-23.9c11.9-4.2 20.4-15.6 20.4-28.9s-8.5-24.6-20.4-28.9v-23.9c11.9-4.2 20.4-15.6 20.4-28.9s-8.5-24.6-20.4-28.9v-32.4c0-5.6-4.6-10.2-10.2-10.2s-10.2-4.6-10.2-10.2 4.6-10.2 10.2-10.2 10.2-4.6 10.2-10.2-4.6-10.2-10.2-10.2c-16.9 0-30.6 13.7-30.6 30.6 0 13.3 8.5 24.6 20.4 28.9v23.9c-11.9 4.2-20.4 15.6-20.4 28.9s8.5 24.6 20.4 28.9v23.9c-11.9 4.2-20.4 15.6-20.4 28.9s8.5 24.6 20.4 28.9v23.9c-11.9 4.2-20.4 15.6-20.4 28.9s8.5 24.6 20.4 28.9v23.9c-11.9 4.2-20.4 15.6-20.4 28.9 0 19.4 18 34.1 37.1 29.9 1.7 0.7-0.7 0 45.8 9.3 3.7 12.7 15.5 22 29.4 22 13.8 0 25.5-9.2 29.3-21.7l53.3-8.9c16.4-0.5 29.6-14 29.6-30.6 0-13.3-8.5-24.6-20.4-28.9v-23.9c11.9-4.2 20.4-15.6 20.4-28.9s-8.5-24.6-20.4-28.9v-23.9c11.9-4.2 20.4-15.6 20.4-28.9s-8.5-24.6-20.4-28.9v-23.9c11.9-4.2 20.4-15.6 20.4-28.9s-8.5-24.6-20.4-28.9v-23.9c17.8-6.3 25.6-27 16.7-43.4l26.4-4.4c4.6 11.1 15.5 19 28.3 19s23.7-7.8 28.3-19l26.4 4.4c-8.9 16.4-1 37.1 16.7 43.4v23.9c-11.9 4.2-20.4 15.6-20.4 28.9s8.5 24.6 20.4 28.9v23.9c-11.9 4.2-20.4 15.6-20.4 28.9s8.5 24.6 20.4 28.9v23.9c-11.9 4.2-20.4 15.6-20.4 28.9s8.5 24.6 20.4 28.9v32.4c0 5.6 4.6 10.2 10.2 10.2s10.2 4.6 10.2 10.2-4.6 10.2-10.2 10.2-10.2 4.6-10.2 10.2 4.6 10.2 10.2 10.2c16.9 0 30.6-13.7 30.6-30.6 0-13.3-8.5-24.6-20.4-28.9v-23.9c11.9-4.2 20.4-15.6 20.4-28.9s-8.5-24.6-20.4-28.9v-23.9c11.9-4.2 20.4-15.6 20.4-28.9s-8.5-24.6-20.4-28.9v-23.9c11.9-4.2 20.4-15.6 20.4-28.9s-8.5-24.6-20.4-28.9v-23.9c11.9-4.3 20.4-15.6 20.4-28.9zm-30.6 10.1c-5.6 0-10.2-4.6-10.2-10.2s4.6-10.2 10.2-10.2 10.2 4.6 10.2 10.2c0 5.7-4.5 10.2-10.2 10.2zm-326.5 61.3c5.6 0 10.2 4.6 10.2 10.2s-4.6 10.2-10.2 10.2-10.2-4.6-10.2-10.2 4.6-10.2 10.2-10.2zm0 81.6c5.6 0 10.2 4.6 10.2 10.2s-4.6 10.2-10.2 10.2-10.2-4.6-10.2-10.2 4.6-10.2 10.2-10.2zm0 81.6c5.6 0 10.2 4.6 10.2 10.2s-4.6 10.2-10.2 10.2-10.2-4.6-10.2-10.2 4.6-10.2 10.2-10.2zm-10.2 91.9c0-5.6 4.6-10.2 10.2-10.2s10.2 4.6 10.2 10.2-4.6 10.2-10.2 10.2-10.2-4.6-10.2-10.2zm91.8 40.8c-5.6 0-10.2-4.6-10.2-10.2s4.6-10.2 10.2-10.2 10.2 4.6 10.2 10.2c0.1 5.6-4.5 10.2-10.2 10.2zm81.7-30.6c-5.6 0-10.2-4.6-10.2-10.2s4.6-10.2 10.2-10.2 10.2 4.6 10.2 10.2-4.6 10.2-10.2 10.2zm0-81.7c-5.6 0-10.2-4.6-10.2-10.2s4.6-10.2 10.2-10.2 10.2 4.6 10.2 10.2c0 5.7-4.6 10.2-10.2 10.2zm0-81.6c-5.6 0-10.2-4.6-10.2-10.2s4.6-10.2 10.2-10.2 10.2 4.6 10.2 10.2-4.6 10.2-10.2 10.2zm0-81.6c-5.6 0-10.2-4.6-10.2-10.2s4.6-10.2 10.2-10.2 10.2 4.6 10.2 10.2-4.6 10.2-10.2 10.2zm0-81.7c-5.6 0-10.2-4.6-10.2-10.2s4.5-10.2 10.2-10.2c5.6 0 10.2 4.6 10.2 10.2s-4.6 10.2-10.2 10.2zm81.6-30.6c-5.6 0-10.2-4.6-10.2-10.2s4.6-10.2 10.2-10.2 10.2 4.6 10.2 10.2c0 5.7-4.6 10.2-10.2 10.2zm81.6 275.5c-5.6 0-10.2-4.6-10.2-10.2s4.6-10.2 10.2-10.2 10.2 4.6 10.2 10.2c0 5.7-4.5 10.2-10.2 10.2zm0-81.6c-5.6 0-10.2-4.6-10.2-10.2s4.6-10.2 10.2-10.2 10.2 4.6 10.2 10.2-4.5 10.2-10.2 10.2zm0-81.6c-5.6 0-10.2-4.6-10.2-10.2s4.6-10.2 10.2-10.2 10.2 4.6 10.2 10.2-4.5 10.2-10.2 10.2z">
    </path>
  </g>
  </g>
</svg>
